{"title":"True.Blood.S06E08.HDTV.1080i.MPEG2.DD5.1-CtrlHD","uid":8781857,"size":5379813452,"categoryP":"video","categoryS":"hd___tv_shows","magnet":"?xt=urn:btih:3111b9200607a4879f9aaf719ce4d64cb0210eaf&amp;dn=True.Blood.S06E08.HDTV.1080i.MPEG2.DD5.1-CtrlHD&amp;tr=udp%3A%2F%2Ftracker.openbittorrent.com%3A80&amp;tr=udp%3A%2F%2Fopen.demonii.com%3A1337&amp;tr=udp%3A%2F%2Ftracker.coppersurfer.tk%3A6969&amp;tr=udp%3A%2F%2Fexodus.desync.com%3A6969","seeders":1,"leechers":0,"uploader":"Thhaque","files":1,"time":1375730507,"description":"True Blood\n\nGenre: Drama, Fantasy\nYear: 2013\nCountry: USA\nRuntime: 55 min\nProducer: Alan Ball\nCast: Anna Paquin, Ryan Kwanten, Stephen Moyer, Sam Trammell, Rutina Wesley\n\nGeneral\nID                                       : 1 (0x1)\nComplete name                            : True.Blood.S06E08.HDTV.1080i.MPEG2.DD5.1-CtrlHD.ts\nFormat                                   : MPEG-TS\nFile size                                : 5.01 GiB\nDuration                                 : 58mn 46s\nOverall bit rate mode                    : Variable\nOverall bit rate                         : 12.2 Mbps\n\nVideo\nID                                       : 33 (0x21)\nMenu ID                                  : 1 (0x1)\nFormat                                   : MPEG Video\nFormat version                           : Version 2\nFormat profile                           : Main@High\nFormat settings, BVOP                    : Yes\nFormat settings, Matrix                  : Custom\nFormat settings, GOP                     : Variable\nCodec ID                                 : 2\nDuration                                 : 58mn 46s\nBit rate mode                            : Variable\nBit rate                                 : 11.2 Mbps\nMaximum bit rate                         : 24.0 Mbps\nWidth                                    : 1 920 pixels\nHeight                                   : 1 080 pixels\nDisplay aspect ratio                     : 16:9\nFrame rate                               : 29.970 fps\nColor space                              : YUV\nChroma subsampling                       : 4:2:0\nBit depth                                : 8 bits\nScan type                                : Interlaced\nScan order                               : Top Field First\nCompression mode                         : Lossy\nBits/(Pixel*Frame)                       : 0.180\nTime code of first frame                 : 00:00:00;00\nTime code source                         : Group of pictures header\nStream size                              : 4.60 GiB (92%)\n\nAudio\nID                                       : 36 (0x24)\nMenu ID                                  : 1 (0x1)\nFormat                                   : AC-3\nFormat/Info                              : Audio Coding 3\nMode extension                           : CM (complete main)\nFormat settings, Endianness              : Big\nCodec ID                                 : 129\nDuration                                 : 58mn 46s\nBit rate mode                            : Constant\nBit rate                                 : 384 Kbps\nChannel(s)                               : 2 channels\nChannel positions                        : Front: L R\nSampling rate                            : 48.0 KHz\nBit depth                                : 16 bits\nCompression mode                         : Lossy\nStream size                              : 161 MiB (3%)\nLanguage                                 : English\n\n.: Plot :.\nBased on the popular 'Southern Vampire,' book series by Charlaine Harris, &quot;True Blood&quot; follows the adventures of a small-town cocktail waitress Sookie Stackhouse (who all her life was an outsider due to her gift/curse of being a telepath) and how her life is turned upside down when a member of the undead (the vampire race 'came out of the coffin' several years earlier) walks into her life one fateful night. \n","torrent":{"xt":"urn:btih:3111b9200607a4879f9aaf719ce4d64cb0210eaf","amp;dn":"True.Blood.S06E08.HDTV.1080i.MPEG2.DD5.1-CtrlHD","amp;tr":["udp%3A%2F%2Ftracker.openbittorrent.com%3A80","udp%3A%2F%2Fopen.demonii.com%3A1337","udp%3A%2F%2Ftracker.coppersurfer.tk%3A6969","udp%3A%2F%2Fexodus.desync.com%3A6969"],"infoHash":"3111b9200607a4879f9aaf719ce4d64cb0210eaf","infoHashBuffer":{"type":"Buffer","data":[49,17,185,32,6,7,164,135,159,154,175,113,156,228,214,76,176,33,14,175]},"announce":[],"urlList":[]}}